<svg width="544" height="469" viewBox="0 0 544 469" fill="none" xmlns="http://www.w3.org/2000/svg">
<path d="M117.741 85.2395L115.886 88.7996C115.134 90.0031 114.432 91.3068 113.78 92.6105C111.223 91.7581 95.6789 87.0948 90.4641 95.3182C90.4641 95.3182 86.4528 101.486 92.8208 113.319C92.8208 113.319 92.8709 115.476 89.1604 117.582C85.4499 119.688 87.7565 131.321 104.103 131.572L103.952 143.556V144.208C96.7319 142.603 79.7338 118.735 79.7338 118.735C71.1094 101.787 75.3714 85.089 76.625 80.9773C76.8255 80.3255 76.976 79.9745 76.976 79.9745C94.7262 75.0605 116.036 84.0862 116.036 84.0862L117.741 85.2395Z" fill="#FCB5D1"/>
<path d="M386.601 51.9463C386.601 52.0466 386.601 52.1469 386.601 52.2472C386.601 52.2973 386.601 52.3475 386.601 52.3976C386.451 53.6512 385.398 62.8775 382.74 73.0064C382.139 75.2628 381.487 77.5694 380.684 79.8258C380.684 79.8759 380.684 79.8759 380.684 79.8759C379.481 83.4862 378.027 86.9461 376.372 90.1051C376.372 90.1051 370.355 83.7871 366.444 77.1682C365.191 74.7112 364.338 72.8559 364.338 72.8559C377.425 65.6354 377.024 58.9162 376.723 53.6512C376.422 48.3862 366.695 49.0882 366.695 49.0882C366.695 49.0882 366.946 34.7975 358.772 28.2288C350.599 21.66 332.949 38.2072 332.949 38.2072L331.194 37.104C328.537 35.1986 326.03 33.594 323.773 32.4408C323.974 31.839 330.141 13.7375 360.076 11.7819C360.126 11.7819 360.126 11.7819 360.176 11.7819C363.987 11.5312 368.199 11.5312 372.862 11.9323C373.213 12.3836 378.428 18.7518 382.389 28.2789C382.389 28.329 382.439 28.4293 382.439 28.4795C384.094 32.4408 385.448 36.9035 386.2 41.7172V41.7673V41.8175C386.651 45.0768 386.852 48.4363 386.601 51.9463Z" fill="#FCB5D1"/>
<path d="M500.223 302.26C471.391 292.482 462.867 279.345 462.867 279.345C462.867 279.345 474.701 269.567 474.45 261.293C474.45 261.293 457.201 264.352 451.034 262.948C448.727 262.396 442.66 260.04 435.49 256.63C423.656 251.014 408.664 242.64 401.845 235.068L406.207 206.988C406.207 206.988 419.545 185.728 418.642 168.529C418.642 168.529 418.542 166.172 419.695 164.216C419.996 163.665 420.447 163.113 421.049 162.712C421.049 162.712 408.664 158.751 412.224 157.648C415.834 156.545 419.194 156.795 419.996 154.188L413.578 146.466L410.77 137.992C410.77 137.992 408.463 128.615 406.357 125.406C404.251 122.247 389.359 109.711 383.443 103.794C377.526 97.8774 375.62 93.5651 375.62 93.5651L373.865 90.8073C372.06 88.952 364.288 72.9063 364.288 72.9063C377.425 65.6857 376.974 58.9666 376.673 53.7016C376.373 48.4365 366.645 49.1385 366.645 49.1385C366.645 49.1385 366.896 34.8478 358.723 28.2791C350.549 21.7104 332.9 38.2575 332.9 38.2575L323.724 32.4911C336.61 7.16895 372.812 11.9325 372.812 11.9325C372.812 11.9325 382.089 21.0585 386.2 41.7174C389.811 59.9694 378.378 85.3417 376.372 90.1554C378.93 84.2887 385.348 72.2544 386.802 49.9408C388.306 26.2734 376.172 7.5701 376.172 7.5701C376.172 7.5701 336.861 -9.97991 292.285 17.699L289.376 18.4511C289.376 18.4511 211.105 1.75353 159.559 38.408L142.511 52.1973C142.511 52.1973 92.7201 45.2274 68.9027 75.5137C68.9027 75.5137 68.0503 94.568 75.6719 110.513C75.6719 110.513 71.0087 82.9348 78.0787 80.0767C85.1988 77.2186 109.919 79.6254 116.136 85.2916L117.841 85.3417L114.281 92.8631C114.281 92.8631 96.3303 86.495 90.6141 95.4706C90.6141 95.4706 86.6028 101.638 92.9708 113.422C92.9708 113.422 93.021 115.578 89.3105 117.684C85.6 119.79 87.9065 131.423 104.253 131.674L104.102 144.26L104.052 146.717C104.052 146.717 102.498 172.089 95.3776 178.307C95.3776 178.307 97.7844 181.466 101.545 182.067C101.545 182.067 95.6283 189.037 92.0683 197.06L90.9651 200.119C90.9651 200.119 31.1459 198.013 9.68521 279.495C9.68521 279.495 3.96904 302.31 6.42599 316.952C6.42599 316.952 7.12798 349.143 18.4099 375.017C18.4099 375.017 21.3683 383.541 13.4459 382.789C13.4459 382.789 37.0125 412.273 55.214 418.441C73.4155 424.608 77.2263 425.762 77.2263 425.762C77.2263 425.762 96.6312 447.975 128.521 450.131C128.521 450.131 125.463 451.284 129.223 453.691C132.984 456.048 163.871 479.014 196.764 460.812C196.764 460.812 210.604 450.683 201.277 427.116C201.277 427.116 200.625 426.564 203.483 421.65C204.988 419.043 204.687 415.232 205.389 418.14L209.851 424.157L212.008 435.088L219.729 457.101C219.729 457.101 241.792 473.799 270.272 455.998L277.543 431.428L280.451 432.581C280.451 432.581 282.908 455.948 284.212 457.352C285.515 458.756 304.92 467.982 323.824 459.959C323.824 459.959 329.64 458.054 332.398 450.231C335.156 442.459 340.321 428.67 340.321 428.67C340.321 428.67 388.908 436.342 423.857 424.007C444.014 416.886 474.951 409.365 516.318 354.96C516.318 354.96 540.186 320.412 542.342 308.127C542.392 307.876 529.105 311.988 500.223 302.26Z" fill="white"/>
<g opacity="0.6">
<path opacity="0.6" d="M397.433 270.017C401.595 246.951 393.021 219.372 400.893 213.907C416.487 203.026 410.771 168.678 410.771 168.678C413.027 168.477 416.387 164.366 421.05 162.711C419.897 164.667 419.395 172.138 419.395 172.138C420.298 189.337 407.612 207.539 407.612 207.539L401.996 237.023C400.843 243.591 402.798 261.994 402.798 261.994C402.798 261.994 405.907 269.866 407.812 276.485C409.718 283.104 405.205 287.567 405.205 287.567C405.205 287.567 406.659 295.64 408.163 306.27C409.668 316.9 401.495 332.896 401.495 332.896C388.508 344.228 394.826 355.46 394.826 355.46C391.617 357.817 390.915 365.539 390.915 365.539C391.065 373.562 385.299 381.685 379.432 386.9C373.566 392.115 376.223 400.138 369.504 411.069C364.54 419.142 362.334 419.142 362.334 419.142L351.152 419.242C345.486 429.321 337.814 429.371 337.814 429.371C346.99 426.513 354.211 412.673 356.016 403.698C356.618 400.489 359.827 397.831 363.086 398.132C374.719 399.085 372.111 380.08 384.095 367.645C392.77 358.669 386.602 345.983 382.792 339.615C381.638 337.659 382.641 335.102 384.847 334.5C387.405 333.798 391.216 332.545 395.377 328.784C414.18 311.836 404.102 276.485 393.372 272.975C392.82 272.775 392.67 272.123 393.071 271.722C393.773 270.919 395.127 270.017 397.333 270.267L397.433 270.017Z" fill="#DBD2D2"/>
<path opacity="0.6" d="M124.11 271.572C117.993 268.513 100.242 276.286 85.5508 289.122C85.5508 289.122 87.8072 281.801 108.014 268.915C110.772 267.16 116.538 266.658 119.848 264.652C119.848 264.652 106.41 254.323 106.31 221.58C106.31 221.58 104.254 214.459 109.218 216.515C109.218 216.515 111.274 258.635 130.678 270.619C130.729 270.67 132.183 275.584 124.11 271.572Z" fill="#DBD2D2"/>
<path opacity="0.6" d="M513.11 307.674C513.11 307.674 529.507 309.88 524.442 323.77C519.378 337.659 497.967 375.016 480.618 380.13C480.618 380.13 475.103 382.337 471.041 382.537C469.487 382.637 468.584 384.392 469.487 385.696C470.389 387 471.793 388.454 474.05 389.357C474.05 389.357 455.196 415.982 413.127 419.192C377.226 421.899 367.649 414.177 367.649 414.177C367.649 414.177 360.93 420.646 350.199 419.192C350.199 419.192 346.99 426.813 341.023 428.568C341.023 428.568 405.355 445.817 469.687 403.246L495.661 380.18L515.417 358.168C515.417 358.168 543.045 317.351 542.142 308.276C542.042 308.276 525.094 310.833 513.11 307.674Z" fill="#DBD2D2"/>
</g>
<path d="M96.6812 221.78C100.191 216.765 105.657 215.662 105.757 215.662C106.81 215.462 107.512 214.459 107.311 213.456C107.111 212.403 106.158 211.701 105.105 211.901C104.804 211.952 98.0351 213.205 93.5725 219.623C92.9708 220.476 93.1713 221.679 94.0739 222.281C94.4249 222.532 94.7759 222.632 95.177 222.632C95.7286 222.632 96.3303 222.331 96.6812 221.78Z" fill="#964146"/>
<path d="M404.303 165.718C403.25 165.668 402.347 166.47 402.297 167.523C402.247 168.576 403.049 169.479 404.102 169.529C404.152 169.529 404.353 169.529 404.704 169.529C406.96 169.529 415.033 169.178 422.805 164.414C423.708 163.863 424.009 162.659 423.457 161.757C422.905 160.854 421.702 160.553 420.8 161.105C412.927 166.019 404.403 165.668 404.303 165.718Z" fill="#964146"/>
<path d="M93.473 283.557C94.2753 282.855 94.3254 281.651 93.6235 280.849C92.9215 280.047 91.7181 279.996 90.9158 280.698C84.9489 286.114 64.9925 306.973 58.6746 349.595C58.474 351.249 54.2621 389.759 64.4409 407.861C64.7919 408.463 65.4437 408.864 66.0956 408.864C66.3964 408.864 66.7474 408.763 67.0483 408.613C67.9508 408.112 68.3018 406.908 67.8004 406.006C58.2233 388.957 62.4854 350.447 62.4854 350.096C68.5525 308.829 87.7569 288.771 93.473 283.557Z" fill="#964146"/>
<path d="M104.906 272.575C105.407 272.575 105.909 272.374 106.26 272.023C106.31 271.973 109.92 268.463 117.893 267.61C118.394 267.56 118.845 267.31 119.146 266.908C120.851 269.165 122.706 271.421 124.762 273.728C125.163 274.129 125.665 274.38 126.166 274.38C126.617 274.38 127.069 274.229 127.47 273.878C128.272 273.176 128.322 271.973 127.62 271.171C101.847 242.539 109.268 219.122 109.369 218.872C109.719 217.869 109.168 216.766 108.165 216.415C107.162 216.064 106.059 216.615 105.708 217.618C105.407 218.521 99.0393 238.126 116.89 263.85C107.764 264.953 103.602 269.165 103.452 269.315C102.7 270.067 102.75 271.271 103.502 272.023C103.903 272.424 104.404 272.575 104.906 272.575Z" fill="#964146"/>
<path d="M100.041 280.697C100.443 281.199 100.994 281.449 101.546 281.449C101.947 281.449 102.348 281.299 102.699 281.048C103.551 280.396 103.702 279.193 103.05 278.34C99.3395 273.577 92.6205 273.326 92.3697 273.326C91.2666 273.326 90.4142 274.128 90.4142 275.181C90.3641 276.234 91.2165 277.137 92.2695 277.137C92.3196 277.187 97.4842 277.388 100.041 280.697Z" fill="#964146"/>
<path d="M9.98513 283.406C10.1356 283.456 10.286 283.456 10.4364 283.456C11.2888 283.456 12.0911 282.854 12.2917 281.952C13.5452 276.486 15.25 271.171 17.2557 266.106C34.1034 224.137 55.0626 204.982 87.5044 202.024C88.5574 201.923 89.3597 200.971 89.2594 199.918C89.1591 198.865 88.2565 198.062 87.1534 198.163C53.1071 201.272 31.145 221.128 13.6956 264.652C11.5897 269.867 9.88484 275.383 8.58116 281.049C8.33045 282.152 8.98229 283.155 9.98513 283.406Z" fill="#964146"/>
<path d="M7.73052 298.298C6.67754 298.197 5.77499 299 5.6747 300.053C2.36534 342.373 19.213 380.582 19.4136 380.933C19.7144 381.635 20.4164 382.086 21.1685 382.086C21.4192 382.086 21.7201 382.036 21.9708 381.936C22.9235 381.485 23.3748 380.381 22.9235 379.379C22.7731 379.028 6.2764 341.671 9.53562 300.353C9.58577 299.3 8.7835 298.348 7.73052 298.298Z" fill="#964146"/>
<path d="M505.841 366.442C503.785 368.899 501.679 371.305 499.573 373.612C498.871 374.414 498.921 375.618 499.673 376.32C500.024 376.671 500.525 376.821 500.977 376.821C501.478 376.821 502.03 376.621 502.381 376.219C504.537 373.863 506.643 371.406 508.749 368.899C509.451 368.096 509.3 366.893 508.498 366.191C507.746 365.489 506.542 365.639 505.841 366.442Z" fill="#964146"/>
<path d="M543.094 307.474C542.142 306.27 540.687 305.619 539.133 305.819C508.747 309.68 479.414 290.475 465.725 279.695C471.893 275.583 475.353 268.513 477.007 264.401C477.509 263.148 477.258 261.794 476.406 260.741C475.553 259.688 474.199 259.186 472.896 259.437C465.274 260.791 460.31 261.493 456.549 261.794C422.102 252.367 404.953 234.967 404.803 234.767C404.653 234.566 404.452 234.466 404.201 234.366C405.806 219.674 409.567 207.89 409.667 207.69C409.817 207.288 409.767 206.887 409.667 206.536C414.882 198.062 420.999 184.774 421.35 168.678C421.35 167.625 420.548 166.723 419.495 166.723C418.442 166.673 417.539 167.525 417.539 168.578C416.937 194.753 399.689 213.807 399.538 213.957C398.836 214.76 398.886 215.963 399.638 216.665C399.989 217.016 400.491 217.167 400.942 217.167C401.444 217.167 401.995 216.966 402.346 216.565C402.446 216.465 402.948 215.913 403.75 214.96C400.441 228.8 395.727 256.529 405.455 275.884C405.655 276.385 406.909 279.945 406.057 283.004C405.304 280.547 404.703 278.993 404.602 278.742C404.201 277.739 403.098 277.288 402.095 277.689C401.093 278.09 400.641 279.193 401.042 280.196C401.193 280.547 413.929 313.29 397.984 334.05C397.031 335.052 390.914 341.772 392.368 350.747C391.866 347.237 391.215 344.931 391.114 344.63C390.813 343.627 389.76 343.025 388.758 343.326C387.755 343.627 387.153 344.68 387.454 345.683C387.504 345.933 394.524 370.955 379.532 384.092L375.47 388.605C375.269 388.806 370.556 394.171 369.403 405.955C369.403 406.005 368.4 412.022 363.687 415.281C361.029 417.086 357.67 417.688 353.608 417.036C357.319 409.715 358.472 402.595 358.522 402.043C358.673 400.99 357.971 400.038 356.918 399.837C355.865 399.687 354.912 400.389 354.711 401.442C354.661 401.642 351.252 422.903 337.212 428.419C336.51 428.669 336.109 429.321 336.008 429.973C335.457 429.572 334.755 429.472 334.103 429.722C333.1 430.174 332.95 430.174 332.749 430.224C332.448 430.274 331.997 430.324 331.044 430.575C330.042 430.876 329.44 431.929 329.691 432.931C329.941 433.784 330.693 434.335 331.546 434.335C331.696 434.335 331.897 434.335 332.047 434.285C332.749 434.085 333.05 434.035 333.251 434.035C333.902 433.934 334.304 433.834 335.607 433.282C336.259 432.982 336.66 432.38 336.761 431.728C337.112 431.979 337.463 432.129 337.914 432.129C337.964 432.129 338.014 432.129 338.064 432.079C335.006 441.406 330.342 453.59 327.334 455.947C321.768 460.36 305.673 463.569 290.028 458.153C287.672 457.351 285.967 455.245 285.616 452.788L283.46 435.439C288.524 437.344 294.341 438.547 301.862 438.547C308.43 438.547 316.353 437.645 326.281 435.539C327.334 435.338 327.986 434.285 327.785 433.282C327.585 432.229 326.532 431.578 325.529 431.778C303.366 436.441 292.134 435.088 282.758 430.976C282.357 430.324 281.655 429.923 280.852 430.023H280.802C280.752 429.973 280.702 429.973 280.652 429.923C283.761 415.532 286.318 400.439 286.869 397.18C294.04 388.655 294.04 380.432 294.04 380.031C294.04 378.978 293.187 378.125 292.134 378.125C292.134 378.125 292.134 378.125 292.084 378.125C291.031 378.125 290.179 379.028 290.179 380.081C290.179 380.181 290.179 387.352 283.761 394.873C283.61 394.973 283.51 395.124 283.41 395.274C281.905 396.979 280.05 398.734 277.794 400.389C265.81 409.264 270.172 422.301 274.133 427.967C274.484 428.519 275.086 428.77 275.688 428.77C276.089 428.77 276.44 428.669 276.791 428.419C276.891 428.368 276.941 428.218 277.042 428.168C274.434 440.302 271.576 451.534 269.37 454.894C267.565 457.602 261.147 460.009 252.572 461.062C240.388 462.616 227.953 461.162 224.292 457.802C222.487 456.148 218.727 450.03 213.211 427.366C216.821 428.82 221.184 429.572 226.448 429.572C226.499 429.572 226.599 429.572 226.649 429.572C227.702 429.572 228.554 428.719 228.554 427.666C228.554 426.613 227.702 425.761 226.649 425.761C226.599 425.761 226.499 425.761 226.448 425.761C218.376 425.761 212.609 423.956 209.35 420.396C208.448 419.443 207.846 418.44 207.445 417.538C214.013 401.492 211.657 381.786 200.375 358.921C199.923 357.968 198.77 357.567 197.817 358.068C196.865 358.519 196.464 359.673 196.965 360.625C206.592 380.131 209.45 397.129 205.589 411.22C205.339 411.069 205.088 411.019 204.837 410.969C203.784 410.869 202.832 411.621 202.731 412.674C202.731 412.824 202.531 414.83 203.333 417.437C194.959 435.99 175.705 442.258 175.504 442.308C174.502 442.609 173.95 443.712 174.251 444.715C174.502 445.517 175.254 446.069 176.106 446.069C176.307 446.069 176.507 446.019 176.658 445.969C177.36 445.768 190.346 441.606 200.174 429.722L201.127 432.931C203.634 441.907 203.283 449.128 200.074 454.393C196.363 460.46 189.895 461.814 189.745 461.814C159.66 469.185 138.75 458.855 129.424 452.587C135.14 453.139 141.257 453.139 147.876 452.537C150.433 452.938 156.701 454.393 158.757 457.05L159.309 457.802H160.261C160.662 457.802 163.771 457.702 165.727 455.145C167.281 453.089 167.482 450.181 166.328 446.52C166.028 445.517 164.924 444.916 163.922 445.267C162.919 445.567 162.317 446.671 162.668 447.673C163.42 450.08 163.42 451.885 162.668 452.888C162.217 453.49 161.565 453.791 161.013 453.891C157.152 450.13 149.13 448.877 148.177 448.726L147.926 448.676H147.676C95.7788 453.791 73.9671 416.685 73.7665 416.284C73.2651 415.381 72.0617 415.03 71.1592 415.582C70.2566 416.083 69.9056 417.287 70.4572 418.189C70.5073 418.29 71.46 419.844 73.3153 422.301C58.9747 418.39 40.9738 410.668 28.338 395.625C9.33426 372.961 5.37305 373.061 4.01923 373.061C3.2671 373.061 2.56511 373.362 2.16398 373.913C1.51213 374.766 1.66256 375.969 2.51497 376.621C3.01639 377.022 3.66823 377.122 4.21979 376.972C5.22263 377.323 10.0362 379.78 25.4298 398.132C40.1214 415.632 61.5821 423.605 76.9756 427.215C77.126 427.265 77.2765 427.265 77.4269 427.265H77.477C85.1989 435.689 99.5896 447.423 121.702 451.534C124.711 454.342 141.157 468.332 168.886 468.332C175.454 468.332 182.675 467.53 190.547 465.625C190.898 465.574 198.67 464.02 203.283 456.499C207.144 450.281 207.645 442.057 204.787 431.929L203.032 425.962C203.885 424.658 204.737 423.304 205.489 421.85C205.79 422.251 206.091 422.652 206.442 423.053C207.144 423.805 207.896 424.457 208.748 425.109C208.748 425.26 208.748 425.46 208.799 425.611C213.462 445.417 217.824 457.301 221.735 460.811C225.496 464.221 234.02 465.675 242.845 465.675C246.305 465.675 249.815 465.474 253.074 465.023C258.94 464.271 269.219 462.265 272.579 457.15C274.735 453.891 277.192 444.966 279.499 434.987L281.805 453.34C282.357 457.301 285.064 460.56 288.775 461.814C294.942 463.92 301.31 464.872 307.277 464.872C316.854 464.872 325.278 462.516 329.691 459.006C334.755 455.044 341.023 435.589 342.677 430.274C354.11 432.229 365.341 433.232 376.272 433.232C422.603 433.232 464.021 415.682 497.465 381.535C498.217 380.783 498.217 379.579 497.415 378.827C496.663 378.075 495.459 378.075 494.707 378.877C454.393 419.995 404.502 436.191 346.388 427.015C348.444 425.109 350.148 422.903 351.552 420.596C353.307 420.947 354.962 421.148 356.567 421.148C360.076 421.148 363.135 420.245 365.793 418.44C371.86 414.278 373.063 406.857 373.113 406.456C374.166 395.976 378.178 391.263 378.228 391.213L382.039 386.95C394.023 376.37 393.571 359.723 392.268 350.797C392.619 352.953 393.421 355.26 394.825 357.617C395.176 358.219 395.828 358.569 396.479 358.569C396.83 358.569 397.131 358.469 397.432 358.319C398.335 357.767 398.636 356.614 398.084 355.711C391.967 345.382 400.29 337.108 400.641 336.757L400.842 336.557C412.826 321.063 410.268 300.203 407.36 288.269C412.324 283.155 409.065 274.881 408.915 274.53L408.865 274.38C403.7 264.15 402.948 251.063 403.8 239.229C408.163 243.191 420.698 253.32 442.008 261.242C441.758 261.493 441.607 261.794 441.507 262.145C441.256 263.198 441.908 264.201 442.961 264.451C447.674 265.554 450.833 266.156 456.349 265.755C456.349 265.755 456.349 265.755 456.399 265.755C460.36 265.504 465.525 264.752 473.397 263.298C471.843 267.259 468.433 273.978 462.617 277.288C459.558 274.731 457.803 273.076 457.703 272.976C456.951 272.223 455.747 272.274 454.995 273.026C454.243 273.778 454.293 274.981 455.045 275.733C456.7 277.338 496.262 315.296 539.685 309.73C539.885 309.73 540.036 309.78 540.086 309.881C540.186 309.981 540.186 310.131 540.136 310.282C537.027 317.803 528.052 337.66 511.956 358.87C511.304 359.723 511.505 360.926 512.307 361.578C512.658 361.829 513.059 361.979 513.46 361.979C514.062 361.979 514.614 361.728 515.015 361.227C531.361 339.666 540.487 319.458 543.696 311.786C544.248 310.232 544.047 308.677 543.094 307.474ZM277.242 425.861C276.841 425.31 268.116 412.423 280.05 403.598C280.752 403.046 281.454 402.495 282.106 401.993C280.903 408.712 279.248 417.688 277.443 426.313C277.342 426.162 277.292 426.012 277.242 425.861Z" fill="#964146"/>
<path d="M9.78613 296.341C9.9867 297.244 10.789 297.895 11.6414 297.895C11.7417 297.895 11.8921 297.895 12.0425 297.845C13.0955 297.645 13.7473 296.642 13.5468 295.589C11.6414 286.012 4.97252 284.056 1.76344 284.357C0.710458 284.457 -0.0918114 285.36 0.00847225 286.463C0.108756 287.516 1.01131 288.318 2.11443 288.218C2.315 288.118 8.08131 287.716 9.78613 296.341Z" fill="#964146"/>
<path d="M78.0294 119.638C78.1297 119.839 78.23 119.989 78.3804 120.14C83.194 128.363 90.0634 136.787 99.9414 144.559C100.292 144.86 100.693 144.961 101.145 144.961C101.496 144.961 101.797 144.86 102.097 144.71C101.446 155.089 99.4399 171.536 94.7266 177.002C93.7238 178.205 93.8241 180.01 94.9773 181.064C95.7295 181.766 97.2337 182.869 99.1892 183.521C95.7796 186.83 91.9187 191.995 89.8127 199.817L89.7626 199.967C89.7626 199.967 89.3113 202.424 88.0076 204.179C87.4059 204.982 87.2053 206.035 87.456 207.038C87.7068 208.04 88.4087 208.793 89.3614 209.194C92.0691 210.297 95.4787 211.35 98.4873 211.35C100.242 211.35 101.897 210.999 103.251 210.096C104.103 209.495 104.354 208.291 103.752 207.439C103.15 206.586 101.947 206.336 101.095 206.937C99.5402 207.99 95.8799 207.639 91.5175 205.934C92.9215 203.778 93.4731 201.321 93.5734 200.82C96.3312 190.591 102.298 185.476 105.557 183.37C105.607 183.32 105.708 183.27 105.758 183.22C106.861 182.518 107.663 182.167 107.763 182.117C108.716 181.715 109.218 180.562 108.766 179.609C108.365 178.657 107.212 178.155 106.259 178.556C106.109 178.606 105.206 179.008 103.802 179.86C101.446 180.612 99.4399 179.66 98.2365 178.757C105.507 168.829 106.209 140.097 106.209 138.843C106.209 137.79 105.407 136.888 104.354 136.888C103.301 136.888 102.398 137.69 102.398 138.743C102.398 139.545 102.348 140.448 102.298 141.451C92.4201 133.678 85.7011 125.254 81.1382 117.081C73.3161 101.035 77.3775 85.1903 78.5308 81.4296C96.0805 75.6632 112.577 82.4826 116.187 84.1373C115.034 86.2935 113.931 88.4997 112.928 90.706C112.878 90.6559 112.828 90.6559 112.728 90.6057C111.975 90.355 94.6765 84.739 88.509 95.1687C87.0549 97.5756 86.9546 101.186 88.158 105.849C88.3586 106.702 89.1609 107.303 90.0133 107.303C90.1637 107.303 90.3141 107.303 90.4646 107.253C91.4674 107.002 92.1192 105.949 91.8685 104.896C90.966 101.386 90.966 98.6286 91.8184 97.1243C96.1807 89.7533 109.819 93.7146 111.374 94.1659C109.218 99.3306 107.413 104.545 106.059 109.861C105.808 110.863 106.41 111.916 107.463 112.217C107.613 112.267 107.763 112.267 107.964 112.267C108.816 112.267 109.619 111.666 109.819 110.813C112.577 99.9825 117.14 89.4525 123.358 79.4239C123.909 78.5213 123.658 77.3179 122.756 76.7663C121.853 76.2147 120.65 76.4654 120.098 77.368C119.396 78.4712 118.745 79.5743 118.093 80.7276C114.483 78.9726 96.2309 71.05 76.4248 78.07L75.5724 78.3709L75.2716 79.2233C75.1212 79.6746 73.0653 85.1903 72.6642 93.2633C71.1098 84.2877 71.6614 77.719 71.8619 75.964C89.3614 53.2994 123.759 52.2464 139.503 53.0989C139.453 53.149 139.403 53.1991 139.353 53.2493C138.601 54.0014 138.601 55.2049 139.353 55.957C139.704 56.3581 140.205 56.5086 140.707 56.5086C141.208 56.5086 141.659 56.308 142.061 55.957C147.376 50.692 151.136 47.9341 151.186 47.884L151.437 47.6834C151.688 47.4327 179.366 20.2051 236.177 16.3441C256.033 14.9903 277.243 16.996 294.341 21.8097C295.344 22.1106 296.397 21.5088 296.698 20.506C296.949 19.6034 296.497 18.6507 295.695 18.2495C303.718 13.0848 336.811 -5.71875 375.17 9.37426C375.772 10.3771 377.125 12.9344 378.68 16.7453C376.373 13.0347 374.518 10.8284 374.318 10.5275L373.816 9.92583L373.014 9.87568C339.67 7.16797 326.432 24.1163 322.922 29.8326C322.371 29.5317 321.769 29.1807 321.217 28.8798C320.265 28.3784 319.111 28.7294 318.61 29.6821C318.109 30.6348 318.46 31.7881 319.412 32.2896C331.847 38.9586 341.274 46.2293 347.492 53.9513C347.893 54.4026 348.444 54.6533 348.996 54.6533C349.397 54.6533 349.848 54.5029 350.199 54.2521C351.002 53.6003 351.152 52.3969 350.5 51.5444C346.79 46.8811 341.926 42.4184 336.109 38.1563C339.068 35.4987 350.751 25.7208 359.225 30.5847C361.582 31.9386 363.336 36.0001 364.239 42.0674C364.389 43.0201 365.192 43.7221 366.144 43.7221C366.245 43.7221 366.345 43.7221 366.445 43.7221C367.498 43.5717 368.2 42.5688 368.05 41.566C366.947 34.1448 364.64 29.3311 361.18 27.3254C349.497 20.6063 334.806 34.1448 332.951 35.95C330.895 34.546 328.688 33.142 326.382 31.7881C329.441 26.7738 341.424 11.4803 371.911 13.7868C374.267 16.8957 384.546 31.1864 384.897 48.0344C384.897 48.3854 384.897 48.7364 384.897 49.1376C384.897 50.1404 384.847 51.1433 384.797 52.1461C384.797 52.2966 384.797 52.447 384.797 52.5974C384.346 63.0773 381.839 74.8609 375.822 87.3464L375.02 88.8507C371.108 82.8336 368.401 77.3179 366.846 73.7076C379.933 66.0859 379.883 57.6117 378.63 53.149C378.128 51.3439 376.975 49.9399 375.371 49.0874C370.858 46.6806 363.637 48.8367 362.835 49.1376C361.832 49.4384 361.281 50.5416 361.581 51.5444C361.882 52.5473 362.985 53.0989 363.988 52.798C365.743 52.2464 370.908 51.0931 373.515 52.4971C374.267 52.8983 374.669 53.4499 374.919 54.2521C376.875 61.2721 371.209 66.6374 365.342 70.1474C365.142 69.646 365.041 69.3953 365.041 69.3452C364.69 68.3423 363.587 67.7907 362.584 68.1417C361.581 68.4927 361.03 69.5457 361.381 70.5486C361.732 71.5514 369.905 95.2189 389.561 111.164C390.363 111.816 391.165 112.418 391.917 113.07C398.486 118.335 404.653 123.249 407.612 130.67C407.812 131.221 408.013 131.773 408.213 132.274C401.695 125.656 392.77 123.75 392.268 123.65C391.215 123.449 390.212 124.101 390.012 125.154C389.811 126.207 390.463 127.21 391.516 127.411C391.667 127.461 405.556 130.419 409.868 141.701C412.124 147.668 415.735 152.131 417.64 154.237C417.74 154.387 417.74 154.488 417.74 154.588C417.74 154.688 417.69 154.789 417.54 154.889C416.036 155.741 414.13 155.992 411.974 155.741C410.921 155.591 409.968 156.343 409.818 157.396C409.668 158.449 410.42 159.402 411.473 159.552C412.175 159.652 412.826 159.703 413.478 159.703C415.634 159.703 417.69 159.201 419.395 158.299C420.548 157.647 421.351 156.544 421.551 155.24C421.752 153.936 421.401 152.632 420.498 151.68C418.793 149.824 415.634 145.913 413.579 140.698C413.629 137.289 412.826 133.478 411.172 129.316C407.862 120.992 400.943 115.477 394.274 110.161C393.472 109.51 392.72 108.908 391.917 108.256C386.051 103.492 381.187 97.9266 377.326 92.5112L379.081 89.1015C385.599 75.613 388.107 62.8767 388.508 51.6949C388.608 50.0401 388.608 48.3854 388.558 46.7307C388.558 46.6304 388.558 46.5301 388.558 46.48C388.558 46.4299 388.558 46.3797 388.558 46.3296C387.906 22.9128 378.178 7.26825 378.028 7.01754L377.677 6.51611L377.125 6.2654C333.402 -11.3348 295.996 13.4358 291.884 16.294C291.533 16.5447 291.333 16.8957 291.182 17.2467C274.435 13.0848 254.529 11.4803 235.776 12.7338C178.764 16.4945 150.936 42.8196 148.729 45.0258C148.178 45.427 145.972 47.1318 142.712 50.1404C142.412 49.7894 141.96 49.5387 141.409 49.5387C125.865 48.4857 87.6065 48.7866 68.4021 74.209L68.1013 74.6102L68.001 75.0614C67.9509 75.3623 64.8922 96.0713 77.528 118.786C77.7285 119.037 77.879 119.338 78.0294 119.638Z" fill="#964146"/>
<path d="M231.513 423.354C231.112 422.351 230.009 421.9 229.006 422.251C228.003 422.652 227.552 423.755 227.903 424.758C227.953 424.858 231.614 433.784 243.447 433.784C245.503 433.784 247.809 433.533 250.367 432.881C262.1 429.973 270.674 432.53 270.824 432.58C271.827 432.881 272.93 432.329 273.231 431.327C273.532 430.324 272.981 429.221 271.978 428.92C271.577 428.819 262.351 426.011 249.464 429.17C235.475 432.63 231.664 423.705 231.513 423.354Z" fill="#964146"/>
<path d="M96.7321 116.279C97.7851 116.079 98.4871 115.126 98.2865 114.073C98.0859 113.02 97.1333 112.318 96.0803 112.519C95.4284 112.619 89.4114 113.772 86.9545 117.433C86.0018 118.837 85.7009 120.491 86.0519 122.196C86.9043 126.308 90.4644 133.278 104.203 133.528H104.253C105.306 133.528 106.159 132.676 106.159 131.623C106.159 130.57 105.357 129.667 104.253 129.667C98.4369 129.567 91.2165 128.013 89.8125 121.344C89.6621 120.692 89.7624 120.09 90.1635 119.539C91.4171 117.633 95.4284 116.53 96.7321 116.279Z" fill="#964146"/>
<path d="M173.463 198.902C191.168 194.362 203.653 183.396 201.349 174.409C199.044 165.422 182.823 161.817 165.118 166.357C147.413 170.898 134.929 181.863 137.233 190.85C139.537 199.837 155.758 203.442 173.463 198.902Z" fill="#FCB5D1"/>
<path opacity="0.0196078" d="M179.579 226.263C214.358 218.603 238.303 193.099 233.061 169.3C227.819 145.5 195.376 132.416 160.597 140.077C125.817 147.737 101.872 173.241 107.114 197.04C112.356 220.84 144.8 233.924 179.579 226.263Z" fill="#FFFEFE"/>
<path opacity="0.0392157" d="M179.446 225.567C213.681 218.015 237.242 192.886 232.07 169.441C226.898 145.995 194.953 133.11 160.718 140.662C126.483 148.214 102.923 173.342 108.095 196.788C113.266 220.234 145.212 233.118 179.446 225.567Z" fill="#FFFCFD"/>
<path opacity="0.0588235" d="M179.378 224.883C213.072 217.44 236.256 192.707 231.161 169.64C226.066 146.573 194.621 133.907 160.926 141.35C127.232 148.793 104.048 173.526 109.144 196.593C114.239 219.66 145.684 232.326 179.378 224.883Z" fill="#FFFBFC"/>
<path opacity="0.0784314" d="M179.23 224.141C212.38 216.807 235.185 192.472 230.166 169.785C225.148 147.099 194.206 134.653 161.056 141.987C127.906 149.321 105.102 173.656 110.12 196.343C115.139 219.029 146.08 231.475 179.23 224.141Z" fill="#FFF9FB"/>
<path opacity="0.0980392" d="M179.082 223.402C211.687 216.178 234.114 192.24 229.172 169.934C224.23 147.629 193.792 135.403 161.186 142.627C128.581 149.851 106.154 173.789 111.096 196.094C116.038 218.4 146.476 230.626 179.082 223.402Z" fill="#FFF8FA"/>
<path opacity="0.1176" d="M179.017 222.775C211.082 215.661 233.127 192.097 228.257 170.143C223.386 148.189 193.444 136.159 161.379 143.273C129.314 150.387 107.269 173.951 112.139 195.905C117.01 217.859 146.952 229.889 179.017 222.775Z" fill="#FFF6FA"/>
<path opacity="0.1373" d="M178.865 222.039C210.413 215.029 232.103 191.858 227.309 170.285C222.516 148.711 193.056 136.905 161.508 143.915C129.96 150.925 108.27 174.096 113.064 195.669C117.857 217.242 147.317 229.048 178.865 222.039Z" fill="#FFF5F9"/>
<path opacity="0.1569" d="M178.781 221.278C209.786 214.376 231.095 191.601 226.377 170.408C221.659 149.216 192.701 137.631 161.697 144.533C130.692 151.436 109.383 174.211 114.101 195.404C118.819 216.596 147.777 228.181 178.781 221.278Z" fill="#FFF3F8"/>
<path opacity="0.1765" d="M178.636 220.597C209.097 213.806 230.028 191.429 225.388 170.617C220.748 149.805 192.294 138.439 161.833 145.231C131.373 152.022 110.441 174.399 115.081 195.211C119.721 216.023 148.176 227.389 178.636 220.597Z" fill="#FEF2F7"/>
<path opacity="0.1961" d="M178.564 219.866C208.484 213.183 229.039 191.201 224.475 170.767C219.911 150.334 191.956 139.187 162.036 145.87C132.116 152.553 111.561 174.535 116.125 194.969C120.689 215.402 148.644 226.549 178.564 219.866Z" fill="#FEF0F6"/>
<path opacity="0.2157" d="M178.434 219.174C207.811 212.6 227.982 190.992 223.489 170.912C218.995 150.832 191.538 139.883 162.161 146.457C132.785 153.032 112.614 174.639 117.107 194.72C121.601 214.8 149.058 225.748 178.434 219.174Z" fill="#FEEFF5"/>
<path opacity="0.2353" d="M178.283 218.503C207.116 212.041 226.91 190.833 222.495 171.133C218.08 151.433 191.127 140.702 162.295 147.164C133.462 153.627 113.667 174.835 118.082 194.535C122.497 214.235 149.45 224.966 178.283 218.503Z" fill="#FEEEF4"/>
<path opacity="0.2549" d="M178.187 217.758C206.476 211.405 225.893 190.594 221.555 171.274C217.216 151.955 190.766 141.443 162.477 147.796C134.187 154.149 114.771 174.96 119.109 194.28C123.447 213.599 149.897 224.111 178.187 217.758Z" fill="#FEECF3"/>
<path opacity="0.2745" d="M178.06 217.009C205.806 210.763 224.843 190.347 220.58 171.408C216.317 152.468 190.368 142.178 162.622 148.424C134.876 154.669 115.839 175.086 120.102 194.025C124.365 212.964 150.313 223.254 178.06 217.009Z" fill="#FEEBF2"/>
<path opacity="0.2941" d="M177.982 216.367C205.185 210.232 223.839 190.192 219.648 171.606C215.456 153.02 190.006 142.926 162.803 149.061C135.599 155.196 116.945 175.237 121.136 193.823C125.328 212.409 150.778 222.503 177.982 216.367Z" fill="#FEE9F1"/>
<path opacity="0.3137" d="M177.848 215.627C204.536 209.594 222.833 189.944 218.718 171.738C214.602 153.532 189.632 143.664 162.944 149.697C136.257 155.73 117.959 175.38 122.075 193.586C126.191 211.792 151.161 221.66 177.848 215.627Z" fill="#FEE8F1"/>
<path opacity="0.3333" d="M177.752 214.947C203.896 209.025 221.818 189.774 217.78 171.948C213.743 154.122 189.276 144.471 163.131 150.393C136.987 156.315 119.066 175.566 123.103 193.392C127.141 211.218 151.608 220.869 177.752 214.947Z" fill="#FEE6F0"/>
<path opacity="0.3529" d="M177.613 214.214C203.214 208.402 220.758 189.547 216.797 172.101C212.836 154.655 188.871 145.224 163.27 151.036C137.668 156.849 120.125 175.703 124.086 193.15C128.046 210.596 152.011 220.027 177.613 214.214Z" fill="#FEE5EF"/>
<path opacity="0.3725" d="M177.481 213.536C202.539 207.833 219.7 189.353 215.811 172.26C211.921 155.167 188.453 145.933 163.394 151.635C138.336 157.338 121.175 175.818 125.065 192.911C128.954 210.004 152.422 219.238 177.481 213.536Z" fill="#FEE3EE"/>
<path opacity="0.3922" d="M177.401 212.812C201.915 207.217 218.695 189.134 214.881 172.422C211.067 155.711 188.103 146.699 163.589 152.293C139.075 157.888 122.295 175.971 126.109 192.683C129.923 209.395 152.887 218.407 177.401 212.812Z" fill="#FEE2ED"/>
<path opacity="0.4118" d="M177.25 212.093C201.221 206.609 217.625 188.924 213.889 172.592C210.153 156.26 187.692 147.466 163.72 152.949C139.749 158.433 123.345 176.119 127.081 192.451C130.817 208.783 153.279 217.577 177.25 212.093Z" fill="#FEE1EC"/>
<path opacity="0.4314" d="M177.166 211.356C200.595 205.981 216.622 188.692 212.962 172.739C209.303 156.787 187.343 148.212 163.914 153.586C140.485 158.961 124.459 176.25 128.118 192.203C131.778 208.156 153.737 216.731 177.166 211.356Z" fill="#FEDFEB"/>
<path opacity="0.451" d="M177.022 210.659C199.907 205.394 215.554 188.502 211.972 172.931C208.389 157.359 186.934 149.004 164.049 154.269C141.165 159.535 125.517 176.426 129.1 191.997C132.682 207.569 154.138 215.924 177.022 210.659Z" fill="#FEDEEA"/>
<path opacity="0.4706" d="M176.96 209.963C199.303 204.806 214.567 188.288 211.055 173.069C207.542 157.85 186.582 149.693 164.24 154.85C141.897 160.007 126.633 176.525 130.145 191.744C133.658 206.963 154.618 215.12 176.96 209.963Z" fill="#FEDCE9"/>
<path opacity="0.4902" d="M176.796 209.233C198.621 204.181 213.53 188.057 210.095 173.218C206.66 158.38 186.183 150.447 164.358 155.499C142.533 160.551 127.624 176.675 131.059 191.514C134.493 206.352 154.97 214.285 176.796 209.233Z" fill="#FEDBE8"/>
<path opacity="0.5098" d="M176.675 208.56C197.958 203.618 212.49 187.89 209.132 173.431C205.775 158.972 185.799 151.257 164.516 156.199C143.232 161.142 128.7 176.87 132.058 191.329C135.415 205.788 155.391 213.503 176.675 208.56Z" fill="#FDD9E8"/>
<path opacity="0.5294" d="M176.588 207.8C197.328 202.966 211.481 187.634 208.199 173.556C204.918 159.477 185.445 151.983 164.705 156.817C143.965 161.651 129.812 176.983 133.094 191.062C136.375 205.14 155.848 212.634 176.588 207.8Z" fill="#FDD8E7"/>
<path opacity="0.549" d="M176.439 207.126C196.636 202.403 210.406 187.448 207.196 173.723C203.987 159.998 185.013 152.7 164.817 157.423C144.62 162.146 130.85 177.101 134.059 190.826C137.269 204.551 156.243 211.849 176.439 207.126Z" fill="#FDD6E6"/>
<path opacity="0.5686" d="M176.372 206.413C196.025 201.798 209.416 187.239 206.283 173.894C203.149 160.549 184.677 153.472 165.024 158.087C145.371 162.702 131.98 177.261 135.113 190.606C138.247 203.951 156.719 211.028 176.372 206.413Z" fill="#FDD5E5"/>
<path opacity="0.5882" d="M176.216 205.692C195.325 201.188 208.34 187.027 205.284 174.062C202.229 161.098 184.26 154.239 165.15 158.743C146.04 163.247 133.026 177.408 136.082 190.373C139.137 203.338 157.106 210.197 176.216 205.692Z" fill="#FDD3E4"/>
<path opacity="0.6078" d="M176.121 204.953C194.688 200.559 207.325 186.795 204.346 174.21C201.368 161.625 183.902 154.985 165.335 159.379C146.768 163.774 134.131 177.538 137.11 190.123C140.088 202.708 157.554 209.347 176.121 204.953Z" fill="#FDD2E3"/>
<path opacity="0.6275" d="M176.003 204.267C194.027 199.982 206.286 186.614 203.385 174.409C200.483 162.204 183.519 155.784 165.495 160.069C147.471 164.354 135.212 177.722 138.113 189.927C141.015 202.132 157.979 208.553 176.003 204.267Z" fill="#FDD1E2"/>
<path opacity="0.6471" d="M175.858 203.574C193.338 199.399 205.213 186.407 202.383 174.556C199.552 162.705 183.087 156.482 165.607 160.657C148.127 164.832 136.252 177.824 139.082 189.675C141.913 201.526 158.378 207.749 175.858 203.574Z" fill="#FDCFE1"/>
<path opacity="0.6667" d="M175.774 202.839C192.739 198.767 204.26 186.167 201.506 174.695C198.753 163.223 182.768 157.225 165.803 161.297C148.839 165.369 137.318 177.97 140.071 189.441C142.825 200.913 158.81 206.911 175.774 202.839Z" fill="#FDCEE0"/>
<path opacity="0.6863" d="M175.649 202.144C192.07 198.18 203.212 185.977 200.535 174.885C197.859 163.794 182.377 158.015 165.956 161.979C149.535 165.942 138.392 178.146 141.069 189.237C143.746 200.328 159.228 206.107 175.649 202.144Z" fill="#FDCCDF"/>
<path opacity="0.7059" d="M175.55 201.402C191.427 197.549 202.192 185.743 199.593 175.032C196.994 164.321 182.016 158.761 166.138 162.614C150.26 166.467 139.496 178.273 142.094 188.984C144.693 199.695 159.672 205.255 175.55 201.402Z" fill="#FDCBDF"/>
<path opacity="0.7255" d="M175.419 200.725C190.753 196.983 201.136 185.552 198.608 175.194C196.08 164.836 181.599 159.473 166.264 163.216C150.929 166.958 140.547 178.389 143.075 188.747C145.603 199.105 160.084 204.468 175.419 200.725Z" fill="#FDC9DE"/>
<path opacity="0.7451" d="M175.324 200.018C190.115 196.385 200.119 185.352 197.669 175.375C195.218 165.398 181.242 160.255 166.451 163.887C151.66 167.52 141.656 178.553 144.107 188.53C146.557 198.507 160.534 203.651 175.324 200.018Z" fill="#FDC8DD"/>
<path opacity="0.7647" d="M175.19 199.3C189.439 195.778 199.066 185.142 196.693 175.544C194.321 165.946 180.847 161.021 166.598 164.544C152.35 168.066 142.722 178.702 145.095 188.3C147.468 197.898 160.942 202.823 175.19 199.3Z" fill="#FDC6DC"/>
<path opacity="0.7843" d="M175.044 198.571C188.749 195.158 197.999 184.92 195.704 175.702C193.409 166.485 180.439 161.778 166.733 165.191C153.028 168.603 143.778 178.841 146.073 188.059C148.368 197.277 161.339 201.983 175.044 198.571Z" fill="#FDC5DB"/>
<path opacity="0.8039" d="M174.971 197.901C188.132 194.598 196.998 184.735 194.773 175.872C192.549 167.008 180.077 162.5 166.916 165.803C153.755 169.106 144.889 178.969 147.113 187.832C149.338 196.696 161.81 201.204 174.971 197.901Z" fill="#FDC4DA"/>
<path opacity="0.8235" d="M174.842 197.182C187.487 193.983 195.998 184.511 193.852 176.027C191.705 167.543 179.714 163.259 167.068 166.459C154.423 169.658 145.912 179.13 148.059 187.614C150.205 196.098 162.196 200.382 174.842 197.182Z" fill="#FDC2D9"/>
<path opacity="0.8431" d="M174.723 196.432C186.824 193.343 194.957 184.27 192.888 176.167C190.82 168.064 179.334 163.998 167.233 167.087C155.132 170.176 146.999 179.249 149.067 187.352C151.135 195.455 162.622 199.52 174.723 196.432Z" fill="#FCC1D8"/>
<path opacity="0.8627" d="M174.616 195.751C186.174 192.772 193.93 184.096 191.939 176.372C189.949 168.648 178.965 164.802 167.407 167.782C155.848 170.761 148.092 179.437 150.083 187.161C152.074 194.884 163.057 198.73 174.616 195.751Z" fill="#FCBFD7"/>
<path opacity="0.8824" d="M174.511 195.047C185.525 192.179 192.898 183.879 190.979 176.51C189.06 169.14 178.576 165.491 167.562 168.359C156.548 171.228 149.175 179.527 151.094 186.897C153.013 194.266 163.497 197.915 174.511 195.047Z" fill="#FCBED6"/>
<path opacity="0.902" d="M174.371 194.313C184.842 191.555 191.837 183.654 189.996 176.664C188.155 169.675 178.175 166.245 167.705 169.002C157.234 171.76 150.238 179.662 152.079 186.652C153.92 193.641 163.901 197.071 174.371 194.313Z" fill="#FCBCD6"/>
<path opacity="0.9216" d="M174.222 193.635C184.149 190.989 190.767 183.486 189.005 176.877C187.243 170.268 177.768 167.055 167.841 169.702C157.914 172.349 151.296 179.852 153.058 186.461C154.82 193.07 164.295 196.282 174.222 193.635Z" fill="#FCBBD5"/>
<path opacity="0.9412" d="M174.144 192.9C183.527 190.364 189.77 183.258 188.086 177.029C186.403 170.8 177.431 167.806 168.047 170.342C158.664 172.878 152.421 179.983 154.105 186.213C155.788 192.442 164.76 195.436 174.144 192.9Z" fill="#FCB9D4"/>
<path opacity="0.9608" d="M174.017 192.207C182.884 189.774 188.765 183.038 187.153 177.163C185.541 171.287 177.046 168.496 168.179 170.929C159.313 173.362 153.432 180.097 155.044 185.973C156.656 191.848 165.151 194.639 174.017 192.207Z" fill="#FCB8D3"/>
<path opacity="0.9804" d="M173.922 191.496C182.244 189.174 187.748 182.838 186.215 177.343C184.682 171.848 176.693 169.275 168.371 171.597C160.049 173.919 154.545 180.255 156.078 185.75C157.611 191.245 165.6 193.817 173.922 191.496Z" fill="#FCB6D2"/>
<path d="M173.772 190.766C181.55 188.556 186.677 182.618 185.224 177.504C183.771 172.389 176.288 170.034 168.509 172.245C160.731 174.455 155.604 180.392 157.057 185.507C158.51 190.621 165.993 192.976 173.772 190.766Z" fill="#FCB5D1"/>
<path d="M340.233 153.237C357.759 148.05 369.832 136.633 367.199 127.737C364.566 118.841 348.224 115.835 330.698 121.022C313.172 126.209 301.099 137.626 303.732 146.522C306.365 155.417 322.707 158.424 340.233 153.237Z" fill="#FCB5D1"/>
<path opacity="0.0196078" d="M347.31 180.341C381.783 171.409 404.774 145.045 398.662 121.455C392.55 97.8645 359.65 85.9816 325.177 94.9134C290.704 103.845 267.712 130.21 273.824 153.8C279.936 177.39 312.837 189.273 347.31 180.341Z" fill="#FFFEFE"/>
<path opacity="0.0392157" d="M347.196 179.716C381.133 170.912 403.757 144.934 397.729 121.693C391.7 98.4512 359.301 86.7467 325.364 95.5502C291.427 104.354 268.803 130.331 274.832 153.573C280.861 176.815 313.259 188.519 347.196 179.716Z" fill="#FFFCFD"/>
<path opacity="0.0588235" d="M347.054 179.001C380.451 170.33 402.713 144.766 396.777 121.902C390.841 99.0378 358.955 87.5323 325.557 96.2036C292.16 104.875 269.898 130.439 275.834 153.303C281.77 176.167 313.657 187.673 347.054 179.001Z" fill="#FFFBFC"/>
<path opacity="0.0784314" d="M346.88 178.266C379.738 169.724 401.636 144.57 395.79 122.084C389.945 99.5972 358.569 88.2933 325.711 96.8356C292.853 105.378 270.956 130.532 276.801 153.018C282.647 175.504 314.023 186.808 346.88 178.266Z" fill="#FFF9FB"/>
<path opacity="0.0980392" d="M346.716 177.584C379.035 169.171 400.568 144.429 394.813 122.32C389.058 100.211 358.194 89.108 325.875 97.5209C293.557 105.934 272.023 130.677 277.778 152.786C283.533 174.895 314.397 185.997 346.716 177.584Z" fill="#FFF8FA"/>
<path opacity="0.1176" d="M346.653 176.882C378.435 168.595 399.601 144.237 393.928 122.477C388.254 100.716 357.89 89.7933 326.108 98.0798C294.325 106.366 273.16 130.724 278.833 152.485C284.506 174.245 314.87 185.168 346.653 176.882Z" fill="#FFF6FA"/>
<path opacity="0.1373" d="M346.477 176.16C377.747 167.996 398.571 144.044 392.989 122.661C387.407 101.278 357.532 90.561 326.262 98.7245C294.992 106.888 274.168 130.84 279.75 152.223C285.332 173.607 315.207 184.323 346.477 176.16Z" fill="#FFF5F9"/>
<path opacity="0.1569" d="M346.347 175.43C377.079 167.397 397.54 143.856 392.049 122.85C386.558 101.844 357.195 91.3279 326.464 99.361C295.733 107.394 275.271 130.935 280.762 151.941C286.253 172.946 315.616 183.463 346.347 175.43Z" fill="#FFF3F8"/>
<path opacity="0.1765" d="M346.198 174.732C376.39 166.827 396.487 143.695 391.086 123.067C385.684 102.438 356.83 92.124 326.638 100.03C296.446 107.935 276.349 131.067 281.75 151.695C287.152 172.324 316.006 182.638 346.198 174.732Z" fill="#FEF2F7"/>
<path opacity="0.1961" d="M346.018 174.022C375.671 166.247 395.406 143.528 390.097 123.276C384.787 103.025 356.445 92.9104 326.792 100.685C297.138 108.459 277.404 131.179 282.713 151.43C288.022 171.682 316.365 181.796 346.018 174.022Z" fill="#FEF0F6"/>
<path opacity="0.2157" d="M345.916 173.322C375.03 165.676 394.395 143.344 389.169 123.443C383.943 103.542 356.104 93.6073 326.99 101.253C297.875 108.899 278.51 131.231 283.736 151.132C288.963 171.033 316.801 180.968 345.916 173.322Z" fill="#FEEFF5"/>
<path opacity="0.2353" d="M345.763 172.641C374.339 165.124 393.341 143.202 388.205 123.678C383.07 104.154 355.741 94.4206 327.165 101.938C298.589 109.455 279.587 131.376 284.723 150.9C289.859 170.424 317.188 180.158 345.763 172.641Z" fill="#FEEEF4"/>
<path opacity="0.2549" d="M345.645 171.901C373.683 164.513 392.322 143.002 387.276 123.855C382.231 104.708 355.413 95.1747 327.375 102.563C299.338 109.95 280.699 131.461 285.744 150.608C290.789 169.756 317.608 179.289 345.645 171.901Z" fill="#FEECF3"/>
<path opacity="0.2745" d="M345.479 171.181C372.978 163.923 391.255 142.823 386.3 124.052C381.346 105.282 355.038 95.9495 327.539 103.208C300.04 110.466 281.764 131.566 286.718 150.336C291.672 169.107 317.981 178.439 345.479 171.181Z" fill="#FEEBF2"/>
<path opacity="0.2941" d="M345.336 170.563C372.297 163.435 390.205 142.724 385.335 124.304C380.465 105.884 354.662 96.7295 327.701 103.857C300.741 110.985 282.833 131.696 287.702 150.117C292.572 168.537 318.376 177.691 345.336 170.563Z" fill="#FEE9F1"/>
<path opacity="0.3137" d="M345.232 169.811C371.681 162.803 389.247 142.496 384.467 124.452C379.687 106.409 354.371 97.4616 327.922 104.469C301.473 111.476 283.906 131.784 288.686 149.827C293.466 167.871 318.783 176.818 345.232 169.811Z" fill="#FEE8F1"/>
<path opacity="0.3333" d="M345.043 169.059C370.952 162.181 388.153 142.284 383.463 124.619C378.773 106.954 353.968 98.2094 328.06 105.088C302.151 111.967 284.95 131.863 289.64 149.529C294.33 167.194 319.135 175.938 345.043 169.059Z" fill="#FEE6F0"/>
<path opacity="0.3529" d="M344.932 168.403C370.303 161.656 387.143 142.171 382.545 124.882C377.947 107.594 353.653 99.0481 328.283 105.795C302.913 112.542 286.073 132.027 290.67 149.316C295.268 166.604 319.562 175.15 344.932 168.403Z" fill="#FEE5EF"/>
<path opacity="0.3725" d="M344.776 167.684C369.609 161.067 386.086 141.992 381.579 125.08C377.073 108.168 353.288 99.8222 328.456 106.44C303.623 113.057 287.146 132.132 291.652 149.044C296.159 165.956 319.943 174.302 344.776 167.684Z" fill="#FEE3EE"/>
<path opacity="0.3922" d="M344.613 166.971C368.905 160.481 385.011 141.795 380.587 125.234C376.163 108.673 352.883 100.509 328.591 106.999C304.298 113.489 288.192 132.175 292.616 148.736C297.041 165.297 320.32 173.461 344.613 166.971Z" fill="#FEE2ED"/>
<path opacity="0.4118" d="M344.512 166.306C368.267 159.947 384.012 141.671 379.68 125.487C375.347 109.302 352.578 101.337 328.823 107.696C305.068 114.056 289.323 132.331 293.655 148.516C297.988 164.701 320.757 172.666 344.512 166.306Z" fill="#FEE1EC"/>
<path opacity="0.4314" d="M344.334 165.564C367.549 159.333 382.93 141.469 378.688 125.662C374.446 109.855 352.187 102.092 328.972 108.322C305.757 114.553 290.376 132.418 294.619 148.224C298.861 164.031 321.119 171.795 344.334 165.564Z" fill="#FEDFEB"/>
<path opacity="0.451" d="M344.235 164.835C366.913 158.734 381.932 141.279 377.781 125.848C373.63 110.417 351.88 102.854 329.202 108.955C306.525 115.056 291.506 132.511 295.657 147.942C299.808 163.373 321.558 170.936 344.235 164.835Z" fill="#FEDEEA"/>
<path opacity="0.4706" d="M344.077 164.213C366.215 158.242 380.865 141.176 376.798 126.096C372.731 111.016 351.487 103.632 329.349 109.603C307.21 115.574 292.561 132.639 296.628 147.719C300.695 162.799 321.939 170.183 344.077 164.213Z" fill="#FEDCE9"/>
<path opacity="0.4902" d="M343.957 163.456C365.583 157.607 379.89 140.946 375.913 126.243C371.937 111.54 351.181 104.363 329.556 110.213C307.93 116.063 293.622 132.724 297.599 147.426C301.576 162.129 322.331 169.306 343.957 163.456Z" fill="#FEDBE8"/>
<path opacity="0.5098" d="M343.785 162.725C364.872 157.004 378.816 140.754 374.93 126.429C371.044 112.103 350.799 105.127 329.712 110.848C308.626 116.568 294.681 132.818 298.567 147.144C302.453 161.469 322.698 168.445 343.785 162.725Z" fill="#FDD9E8"/>
<path opacity="0.5294" d="M343.625 162.058C364.173 156.468 377.754 140.628 373.96 126.68C370.165 112.731 350.431 105.956 329.883 111.546C309.335 117.136 295.754 132.975 299.548 146.924C303.343 160.872 323.077 167.648 343.625 162.058Z" fill="#FDD8E7"/>
<path opacity="0.549" d="M343.526 161.357C363.536 155.895 376.748 140.444 373.036 126.846C369.325 113.248 350.096 106.652 330.086 112.113C310.076 117.575 296.864 133.025 300.575 146.624C304.287 160.222 323.516 166.818 343.526 161.357Z" fill="#FDD6E6"/>
<path opacity="0.5686" d="M343.364 160.635C362.835 155.304 375.685 140.263 372.065 127.042C368.444 113.82 349.725 107.424 330.254 112.756C310.783 118.088 297.933 133.128 301.553 146.35C305.173 159.571 323.893 165.967 343.364 160.635Z" fill="#FDD5E5"/>
<path opacity="0.5882" d="M343.277 159.934C362.21 154.731 374.697 140.1 371.167 127.255C367.637 114.41 349.427 108.216 330.494 113.419C311.561 118.622 299.074 133.253 302.604 146.098C306.134 158.942 324.344 165.137 343.277 159.934Z" fill="#FDD3E4"/>
<path opacity="0.6078" d="M343.091 159.201C361.484 154.128 373.607 139.908 370.168 127.441C366.73 114.974 349.031 108.98 330.638 114.054C312.245 119.127 300.122 133.347 303.56 145.814C306.999 158.281 324.697 164.275 343.091 159.201Z" fill="#FDD2E3"/>
<path opacity="0.6275" d="M342.901 158.487C360.754 153.544 372.515 139.736 369.168 127.647C365.821 115.557 348.634 109.763 330.78 114.706C312.926 119.649 301.166 133.457 304.513 145.546C307.86 157.636 325.047 163.43 342.901 158.487Z" fill="#FDD1E2"/>
<path opacity="0.6471" d="M342.831 157.859C360.148 153.046 371.54 139.627 368.277 127.886C365.014 116.146 348.331 110.531 331.014 115.344C313.698 120.157 302.305 133.576 305.568 145.316C308.832 157.056 325.515 162.672 342.831 157.859Z" fill="#FDCFE1"/>
<path opacity="0.6667" d="M342.666 157.124C359.471 152.432 370.522 139.418 367.35 128.054C364.177 116.691 347.983 111.283 331.179 115.974C314.375 120.666 303.324 133.68 306.496 145.044C309.668 156.407 325.862 161.815 342.666 157.124Z" fill="#FDCEE0"/>
<path opacity="0.6863" d="M342.528 156.351C358.792 151.788 369.479 139.184 366.397 128.199C363.316 117.214 347.633 112.008 331.369 116.57C315.105 121.133 304.418 133.737 307.5 144.722C310.581 155.708 326.264 160.914 342.528 156.351Z" fill="#FDCCDF"/>
<path opacity="0.7059" d="M342.385 155.684C358.111 151.251 368.435 139.058 365.445 128.449C362.455 117.84 347.282 112.834 331.556 117.267C315.83 121.7 305.506 133.893 308.496 144.501C311.486 155.11 326.659 160.116 342.385 155.684Z" fill="#FDCBDF"/>
<path opacity="0.7255" d="M342.218 155.002C357.404 150.699 367.359 138.895 364.453 128.637C361.547 118.379 346.879 113.552 331.693 117.855C316.506 122.158 306.551 133.962 309.458 144.22C312.364 154.478 327.031 159.305 342.218 155.002Z" fill="#FDC9DE"/>
<path opacity="0.7451" d="M342.097 154.258C356.744 150.084 366.337 138.691 363.522 128.811C360.706 118.93 346.55 114.303 331.903 118.477C317.255 122.65 307.663 134.043 310.478 143.924C313.293 153.804 327.449 158.431 342.097 154.258Z" fill="#FDC8DD"/>
<path opacity="0.7647" d="M341.951 153.579C356.06 149.536 365.29 138.553 362.566 129.049C359.842 119.546 346.197 115.119 332.088 119.163C317.979 123.206 308.749 134.189 311.473 143.693C314.196 153.196 327.842 157.623 341.951 153.579Z" fill="#FDC6DC"/>
<path opacity="0.7843" d="M341.852 152.852C355.423 148.938 364.291 138.366 361.659 129.239C359.027 120.111 345.892 115.885 332.321 119.799C318.75 123.712 309.882 134.284 312.514 143.411C315.146 152.539 328.281 156.765 341.852 152.852Z" fill="#FDC5DB"/>
<path opacity="0.8039" d="M341.69 152.184C354.722 148.4 363.221 138.218 360.674 129.442C358.126 120.665 345.496 116.617 332.464 120.4C319.432 124.183 310.933 134.365 313.48 143.142C316.028 151.919 328.658 155.967 341.69 152.184Z" fill="#FDC4DA"/>
<path opacity="0.8235" d="M341.52 151.486C354.039 147.825 362.196 138.048 359.74 129.649C357.283 121.249 345.143 117.409 332.624 121.07C320.106 124.731 311.948 134.508 314.405 142.907C316.861 151.307 329.001 155.148 341.52 151.486Z" fill="#FDC2D9"/>
<path opacity="0.8431" d="M341.392 150.755C353.372 147.224 361.166 137.859 358.802 129.837C356.438 121.815 344.81 118.174 332.83 121.705C320.85 125.235 313.055 134.601 315.42 142.623C317.784 150.645 329.412 154.286 341.392 150.755Z" fill="#FCC1D8"/>
<path opacity="0.8627" d="M341.238 150.041C352.679 146.641 360.112 137.686 357.84 130.041C355.568 122.395 344.451 118.954 333.009 122.355C321.568 125.755 314.135 134.71 316.407 142.355C318.679 150 329.796 153.442 341.238 150.041Z" fill="#FCBFD7"/>
<path opacity="0.8824" d="M341.101 149.343C352.003 146.073 359.066 137.509 356.878 130.215C354.69 122.921 344.079 119.659 333.178 122.929C322.277 126.199 315.213 134.763 317.401 142.057C319.589 149.351 330.2 152.614 341.101 149.343Z" fill="#FCBED6"/>
<path opacity="0.902" d="M340.953 148.649C351.315 145.508 358.016 137.355 355.92 130.438C353.824 123.521 343.724 120.459 333.362 123.599C323 126.74 316.299 134.893 318.395 141.81C320.491 148.727 330.59 151.789 340.953 148.649Z" fill="#FCBCD6"/>
<path opacity="0.9216" d="M354.962 130.671C356.968 137.19 350.6 144.962 340.772 147.971C330.944 150.979 321.367 148.121 319.361 141.552C317.356 135.034 323.724 127.262 333.552 124.253C343.379 121.244 353.007 124.103 354.962 130.671Z" fill="#FCBBD5"/>
<path opacity="0.9412" d="M354.011 130.822C355.916 136.99 349.949 144.311 340.623 147.219C331.346 150.077 322.221 147.42 320.315 141.252C318.41 135.085 324.377 127.764 333.703 124.855C343.03 121.997 352.105 124.655 354.011 130.822Z" fill="#FCB9D4"/>
<path opacity="0.9608" d="M353.106 131.023C354.912 136.84 349.296 143.759 340.521 146.517C331.746 149.275 323.172 146.818 321.367 141.001C319.562 135.185 325.177 128.265 333.952 125.507C342.677 122.749 351.251 125.257 353.106 131.023Z" fill="#FCB8D3"/>
<path opacity="0.9804" d="M352.156 131.224C353.86 136.64 348.595 143.158 340.372 145.816C332.149 148.423 324.076 146.167 322.371 140.751C320.666 135.336 325.931 128.817 334.155 126.16C342.328 123.552 350.401 125.809 352.156 131.224Z" fill="#FCB6D2"/>
<path d="M334.305 126.812C341.976 124.305 349.548 126.411 351.202 131.475C352.857 136.539 347.943 142.657 340.272 145.164C332.6 147.671 325.028 145.565 323.374 140.501C321.719 135.436 326.583 129.269 334.305 126.812Z" fill="#FCB5D1"/>
<path d="M389.758 106.55C390.51 106.701 391.212 106.25 391.413 105.548C391.563 104.795 391.112 104.093 390.41 103.893C357.718 96.3212 329.638 115.977 329.387 116.178C328.786 116.629 328.635 117.482 329.087 118.083C329.337 118.434 329.789 118.635 330.19 118.635C330.44 118.635 330.741 118.535 330.992 118.384C331.193 118.234 358.269 99.2295 389.758 106.55Z" fill="#8F393F"/>
<path d="M394.122 145.912C367.897 125.003 334.052 130.669 333.751 130.719C332.999 130.869 332.497 131.571 332.648 132.323C332.798 133.076 333.5 133.577 334.252 133.427C334.603 133.376 367.196 127.911 392.467 148.068C392.718 148.269 393.019 148.369 393.319 148.369C393.721 148.369 394.122 148.169 394.372 147.868C394.824 147.266 394.723 146.414 394.122 145.912Z" fill="#8F393F"/>
<path d="M170.59 172.989C171.342 173.189 172.094 172.738 172.294 172.036C172.495 171.284 172.044 170.532 171.342 170.331C170.991 170.231 137.897 161.406 109.818 179.808C109.166 180.209 109.015 181.062 109.417 181.714C109.667 182.115 110.119 182.315 110.57 182.315C110.821 182.315 111.071 182.265 111.322 182.115C138.298 164.414 170.239 172.888 170.59 172.989Z" fill="#8F393F"/>
<path d="M172.144 185.525C171.793 185.575 138.098 191.893 120.699 220.575C120.298 221.226 120.498 222.079 121.15 222.48C121.351 222.63 121.601 222.681 121.852 222.681C122.303 222.681 122.755 222.43 123.005 222.029C139.753 194.4 172.295 188.283 172.596 188.232C173.348 188.082 173.849 187.38 173.699 186.628C173.598 185.876 172.896 185.374 172.144 185.525Z" fill="#8F393F"/>
<path d="M215.568 135.183C220.432 154.939 209.852 164.266 194.91 167.977C179.917 171.687 166.229 168.378 161.315 148.621C156.451 128.865 164.624 109.861 179.566 106.15C194.609 102.44 210.704 115.427 215.568 135.183Z" fill="url(#paint0_radial_566_1055)"/>
<path d="M195.146 149.578C201.943 147.287 205.28 138.984 202.6 131.033C199.92 123.081 192.238 118.493 185.441 120.784C178.644 123.074 175.307 131.377 177.987 139.329C180.667 147.28 188.35 151.869 195.146 149.578Z" fill="white"/>
<path d="M182.925 151.83C183.778 154.287 182.625 156.894 180.418 157.646C178.212 158.398 175.755 156.994 174.903 154.537C174.05 152.08 175.204 149.473 177.41 148.721C179.616 147.969 182.073 149.373 182.925 151.83Z" fill="white"/>
<path d="M320.166 108.255C325.03 128.012 314.45 137.338 299.507 141.049C284.515 144.759 270.826 141.45 265.912 121.694C261.049 101.937 269.222 82.9331 284.164 79.2225C299.207 75.4618 315.302 88.499 320.166 108.255Z" fill="url(#paint1_radial_566_1055)"/>
<path d="M299.738 122.599C306.535 120.309 309.872 112.006 307.192 104.054C304.512 96.1029 296.829 91.5142 290.033 93.8051C283.236 96.096 279.899 104.399 282.579 112.35C285.259 120.302 292.942 124.89 299.738 122.599Z" fill="white"/>
<path d="M285.004 130.683C287.208 129.94 288.321 127.338 287.49 124.872C286.658 122.405 284.197 121.007 281.993 121.75C279.789 122.493 278.676 125.095 279.507 127.562C280.339 130.029 282.8 131.426 285.004 130.683Z" fill="white"/>
<path d="M273.582 152.432C272.63 152.031 271.476 152.482 271.075 153.435C266.813 163.513 256.083 161.157 251.67 159.702C250.968 159.452 250.266 159.652 249.765 160.104C249.263 160.154 248.812 160.354 248.511 160.755C238.633 172.389 230.26 165.97 229.909 165.72C229.106 165.068 227.903 165.168 227.201 166.02C226.549 166.823 226.649 168.026 227.502 168.728C227.552 168.778 231.112 171.586 236.377 171.586C240.539 171.586 245.754 169.831 251.169 163.614C253.024 164.165 256.083 164.917 259.442 164.917C264.958 164.917 271.326 162.912 274.685 154.989C275.036 153.936 274.585 152.833 273.582 152.432Z" fill="#964146"/>
<path d="M256.082 149.222C257.185 153.234 254.277 157.546 249.614 158.8C244.951 160.053 240.288 157.847 239.185 153.836C238.081 149.824 254.979 145.211 256.082 149.222Z" fill="#8F393F"/>
<defs>
<radialGradient id="paint0_radial_566_1055" cx="0" cy="0" r="1" gradientUnits="userSpaceOnUse" gradientTransform="translate(181.901 104.186) rotate(-18.7069) scale(73.69 74.9093)">
<stop stop-color="#87314D"/>
<stop offset="1" stop-color="#612036"/>
</radialGradient>
<radialGradient id="paint1_radial_566_1055" cx="0" cy="0" r="1" gradientUnits="userSpaceOnUse" gradientTransform="translate(286.497 77.2213) rotate(-18.7069) scale(73.6901 74.9094)">
<stop stop-color="#87314D"/>
<stop offset="1" stop-color="#612036"/>
</radialGradient>
</defs>
</svg>
